<svg width="1000" height="600" viewBox="0 0 1000 600" fill="none" xmlns="http://www.w3.org/2000/svg">
  <rect width="1000" height="600" rx="32" fill="#F5F5F5"/>
  <rect x="40" y="40" width="920" height="520" rx="24" fill="#FFFFFF" stroke="#E5E7EB" stroke-width="2"/>
  <rect x="72" y="80" width="160" height="32" rx="12" fill="#E5E7EB"/>
  <rect x="72" y="136" width="120" height="24" rx="12" fill="#111827"/>
  <rect x="72" y="176" width="120" height="24" rx="12" fill="#E5E7EB"/>
  <rect x="72" y="216" width="120" height="24" rx="12" fill="#E5E7EB"/>
  <rect x="72" y="256" width="120" height="24" rx="12" fill="#E5E7EB"/>
  <rect x="72" y="296" width="120" height="24" rx="12" fill="#E5E7EB"/>
  <rect x="72" y="336" width="120" height="24" rx="12" fill="#E5E7EB"/>
  <rect x="72" y="376" width="120" height="24" rx="12" fill="#E5E7EB"/>
  <rect x="72" y="416" width="120" height="24" rx="12" fill="#E5E7EB"/>
  <rect x="72" y="456" width="120" height="24" rx="12" fill="#E5E7EB"/>
  <rect x="230" y="128" width="320" height="28" rx="14" fill="#111827"/>
  <rect x="230" y="168" width="360" height="20" rx="10" fill="#E5E7EB"/>
  <rect x="230" y="200" width="280" height="16" rx="8" fill="#E5E7EB"/>
  <rect x="230" y="240" width="340" height="16" rx="8" fill="#E5E7EB"/>
  <rect x="230" y="280" width="280" height="16" rx="8" fill="#E5E7EB"/>
  <rect x="230" y="320" width="220" height="16" rx="8" fill="#E5E7EB"/>
  <rect x="230" y="360" width="180" height="16" rx="8" fill="#E5E7EB"/>
  <rect x="230" y="400" width="280" height="16" rx="8" fill="#E5E7EB"/>
  <rect x="596" y="128" width="320" height="28" rx="14" fill="#E5E7EB"/>
  <rect x="596" y="168" width="340" height="16" rx="8" fill="#E5E7EB"/>
  <rect x="596" y="200" width="320" height="16" rx="8" fill="#E5E7EB"/>
  <rect x="596" y="232" width="240" height="16" rx="8" fill="#E5E7EB"/>
  <rect x="596" y="272" width="300" height="16" rx="8" fill="#E5E7EB"/>
  <rect x="596" y="312" width="320" height="16" rx="8" fill="#E5E7EB"/>
  <rect x="596" y="352" width="280" height="16" rx="8" fill="#E5E7EB"/>
  <rect x="596" y="392" width="320" height="16" rx="8" fill="#E5E7EB"/>
  <circle cx="500" cy="320" r="80" fill="#EF4444" opacity="0.92"/>
  <polygon points="540,320 480,350 480,290" fill="white"/>
  <rect x="40" y="40" width="920" height="520" rx="24" fill="url(#fade)"/>
  <defs>
    <linearGradient id="fade" x1="500" y1="560" x2="500" y2="400" gradientUnits="userSpaceOnUse">
      <stop offset="0" stop-color="white" stop-opacity="0"/>
      <stop offset="1" stop-color="white" stop-opacity="0.82"/>
    </linearGradient>
  </defs>
</svg>














